<svg width="8" height="8" viewBox="0 0 8 8" fill="none" xmlns="http://www.w3.org/2000/svg">
<path d="M7.99372 6.1322C7.99372 6.32024 7.94344 6.49485 7.86803 6.6426L5.348 3.62726L7.84289 1.29694C7.93716 1.46483 8 1.65289 8 1.86107V6.1322H7.99372ZM3.99686 4.17795L7.46583 0.934309C7.32129 0.853721 7.16418 0.799988 6.98822 0.799988H0.999215C0.823252 0.799988 0.666143 0.853721 0.521603 0.934309L3.99686 4.17795ZM4.96465 3.98319L4.16025 4.73536C4.10998 4.78237 4.05342 4.8025 3.99686 4.8025C3.9403 4.8025 3.87746 4.78237 3.83346 4.73536L3.02907 3.98319L0.477612 7.03882C0.628437 7.13955 0.810684 7.19999 1.0055 7.19999H6.9945C7.18932 7.19999 7.36528 7.13955 7.52239 7.03882L4.96465 3.98319ZM0.157109 1.29694C0.0628437 1.46483 0 1.65289 0 1.86107V6.12548C0 6.31352 0.0502754 6.48813 0.125688 6.63588L2.64572 3.62056L0.157109 1.29694Z" fill="#f9cb80"/>
</svg>
