<svg width="8" height="8" viewBox="0 0 8 8" fill="none" xmlns="http://www.w3.org/2000/svg">
<path d="M7.99641 6.30834C8.01306 6.44167 7.97142 6.55 7.87982 6.65L6.75564 7.76667C6.70567 7.825 6.63905 7.87501 6.55578 7.90835C6.4725 7.95001 6.39756 7.97501 6.31428 7.98334C6.30596 7.98334 6.2893 7.98335 6.26432 7.99168C6.23934 7.99168 6.1977 8 6.15607 8C6.04781 8 5.87294 7.98335 5.63144 7.94169C5.38995 7.90835 5.09849 7.81667 4.74875 7.66667C4.399 7.52501 4.00761 7.30834 3.56627 7.01667C3.12492 6.72501 2.65859 6.33333 2.15895 5.83333C1.76756 5.44166 1.43447 5.06667 1.17632 4.71667C0.918173 4.35833 0.709989 4.03333 0.55177 3.725C0.393551 3.425 0.276969 3.15001 0.193696 2.90001C0.11875 2.65834 0.0604582 2.44167 0.0354762 2.26667C0.0104942 2.09167 -0.00616121 1.95 0.00216612 1.85C0.0104935 1.75 0.0104936 1.69168 0.0104936 1.68335C0.018821 1.60002 0.0438031 1.52501 0.0854398 1.44167C0.127076 1.35834 0.168713 1.29168 0.227004 1.24168L1.35119 0.116679C1.42614 0.0416788 1.51774 0 1.626 0C1.70094 0 1.76756 0.0250142 1.81752 0.0666809C1.87582 0.108348 1.92578 0.158349 1.95909 0.225016L2.86677 1.95002C2.91673 2.04169 2.93339 2.14168 2.90841 2.25001C2.88342 2.35834 2.84179 2.45002 2.76684 2.52502L2.35048 2.94169C2.34215 2.95002 2.32549 2.975 2.31717 3C2.30884 3.025 2.30051 3.05002 2.30051 3.06668C2.32549 3.18335 2.37546 3.32501 2.4504 3.47501C2.51702 3.60834 2.62528 3.77501 2.76684 3.97501C2.90841 4.16668 3.10826 4.39168 3.36641 4.65001C3.62456 4.90834 3.84939 5.10835 4.04092 5.25835C4.24078 5.40002 4.40733 5.50833 4.54056 5.575C4.6738 5.64166 4.77373 5.68335 4.84868 5.70002L4.95693 5.72502C4.96526 5.72502 4.99024 5.71667 5.01522 5.70833C5.0402 5.7 5.05686 5.69169 5.07351 5.67502L5.5565 5.18333C5.65642 5.09166 5.77301 5.05002 5.91457 5.05002C6.0145 5.05002 6.08945 5.06668 6.13941 5.10002H6.14774L7.7799 6.06669C7.90481 6.10002 7.97975 6.19167 7.99641 6.30834Z" fill="#f9cb80"/>
</svg>
